<svg xmlns="http://www.w3.org/2000/svg" viewBox="0 0 360 640" preserveAspectRatio="xMidYMid slice" shape-rendering="crispEdges">
  <defs>
    <linearGradient id="backWall" x1="0" y1="0" x2="0" y2="1">
      <stop offset="0" stop-color="#0a0f2a"/>
      <stop offset="1" stop-color="#1a2356"/>
    </linearGradient>
    <linearGradient id="stageFace" x1="0" y1="0" x2="0" y2="1">
      <stop offset="0" stop-color="#2a336f"/>
      <stop offset="1" stop-color="#1a2252"/>
    </linearGradient>
    <linearGradient id="floor" x1="0" y1="0" x2="0" y2="1">
      <stop offset="0" stop-color="#17214d"/>
      <stop offset="1" stop-color="#101739"/>
    </linearGradient>
    <linearGradient id="curtain" x1="0" y1="0" x2="1" y2="0">
      <stop offset="0" stop-color="#591133"/>
      <stop offset="1" stop-color="#7a1846"/>
    </linearGradient>
    <linearGradient id="spot" x1="0" y1="0" x2="0" y2="1">
      <stop offset="0" stop-color="#7ce8ff" stop-opacity="0.42"/>
      <stop offset="1" stop-color="#7ce8ff" stop-opacity="0"/>
    </linearGradient>
    <linearGradient id="spotWarm" x1="0" y1="0" x2="0" y2="1">
      <stop offset="0" stop-color="#ffd96c" stop-opacity="0.26"/>
      <stop offset="1" stop-color="#ffd96c" stop-opacity="0"/>
    </linearGradient>
  </defs>

  <rect width="360" height="640" fill="#070b1f"/>

  <rect x="0" y="0" width="360" height="342" fill="url(#backWall)"/>

  <!-- overhead rig -->
  <rect x="0" y="0" width="360" height="28" fill="#060913"/>
  <rect x="8" y="10" width="344" height="8" fill="#111833"/>
  <rect x="28" y="18" width="4" height="18" fill="#1d2959"/>
  <rect x="84" y="18" width="4" height="18" fill="#1d2959"/>
  <rect x="140" y="18" width="4" height="18" fill="#1d2959"/>
  <rect x="196" y="18" width="4" height="18" fill="#1d2959"/>
  <rect x="252" y="18" width="4" height="18" fill="#1d2959"/>
  <rect x="308" y="18" width="4" height="18" fill="#1d2959"/>

  <!-- rig lamps -->
  <rect x="22" y="34" width="14" height="10" fill="#ffe36d"/>
  <rect x="78" y="34" width="14" height="10" fill="#ff6ea5"/>
  <rect x="134" y="34" width="14" height="10" fill="#5fe3ff"/>
  <rect x="190" y="34" width="14" height="10" fill="#7fffab"/>
  <rect x="246" y="34" width="14" height="10" fill="#5fe3ff"/>
  <rect x="302" y="34" width="14" height="10" fill="#ffe36d"/>

  <!-- side curtains -->
  <rect x="0" y="26" width="56" height="348" fill="url(#curtain)"/>
  <rect x="304" y="26" width="56" height="348" fill="url(#curtain)"/>
  <rect x="8" y="26" width="8" height="348" fill="#8d2a55"/>
  <rect x="24" y="26" width="8" height="348" fill="#8d2a55"/>
  <rect x="40" y="26" width="8" height="348" fill="#8d2a55"/>
  <rect x="312" y="26" width="8" height="348" fill="#8d2a55"/>
  <rect x="328" y="26" width="8" height="348" fill="#8d2a55"/>
  <rect x="344" y="26" width="8" height="348" fill="#8d2a55"/>

  <!-- spotlight cones -->
  <polygon points="134,42 180,360 226,42" fill="url(#spot)"/>
  <polygon points="100,42 148,315 196,42" fill="url(#spotWarm)"/>
  <polygon points="164,42 212,315 260,42" fill="url(#spotWarm)"/>

  <!-- back panels -->
  <rect x="62" y="74" width="236" height="182" fill="#111a47"/>
  <rect x="72" y="84" width="216" height="162" fill="#15225a"/>
  <rect x="84" y="96" width="192" height="138" fill="#1a2c70"/>

  <!-- pixel display bars -->
  <rect x="96" y="112" width="168" height="12" fill="#293d8d"/>
  <rect x="106" y="114" width="28" height="8" fill="#5fe3ff"/>
  <rect x="138" y="114" width="28" height="8" fill="#ff6ea5"/>
  <rect x="170" y="114" width="28" height="8" fill="#ffe36d"/>
  <rect x="202" y="114" width="28" height="8" fill="#7fffab"/>
  <rect x="234" y="114" width="20" height="8" fill="#5fe3ff"/>

  <rect x="96" y="132" width="168" height="8" fill="#2d448f"/>
  <rect x="96" y="148" width="168" height="8" fill="#2d448f"/>
  <rect x="96" y="164" width="168" height="8" fill="#2d448f"/>

  <!-- raised stage deck -->
  <rect x="42" y="322" width="276" height="24" fill="#33449a"/>
  <rect x="30" y="346" width="300" height="42" fill="url(#stageFace)"/>
  <rect x="20" y="388" width="320" height="22" fill="#16204f"/>

  <!-- floor tiles -->
  <rect x="0" y="410" width="360" height="230" fill="url(#floor)"/>
  <rect x="0" y="410" width="360" height="4" fill="#5e7cff" opacity="0.62"/>

  <rect x="0" y="454" width="360" height="2" fill="#202b5f"/>
  <rect x="0" y="496" width="360" height="2" fill="#202b5f"/>
  <rect x="0" y="538" width="360" height="2" fill="#202b5f"/>
  <rect x="0" y="580" width="360" height="2" fill="#202b5f"/>

  <rect x="44" y="410" width="2" height="230" fill="#26346f"/>
  <rect x="88" y="410" width="2" height="230" fill="#26346f"/>
  <rect x="132" y="410" width="2" height="230" fill="#26346f"/>
  <rect x="176" y="410" width="2" height="230" fill="#26346f"/>
  <rect x="220" y="410" width="2" height="230" fill="#26346f"/>
  <rect x="264" y="410" width="2" height="230" fill="#26346f"/>
  <rect x="308" y="410" width="2" height="230" fill="#26346f"/>

  <!-- side monitors / speakers -->
  <rect x="58" y="338" width="26" height="58" fill="#10142e"/>
  <rect x="64" y="346" width="14" height="10" fill="#26336f"/>
  <rect x="64" y="362" width="14" height="10" fill="#26336f"/>
  <rect x="276" y="338" width="26" height="58" fill="#10142e"/>
  <rect x="282" y="346" width="14" height="10" fill="#26336f"/>
  <rect x="282" y="362" width="14" height="10" fill="#26336f"/>

  <!-- audience silhouette strip -->
  <rect x="0" y="606" width="360" height="34" fill="#05070e"/>
  <rect x="8" y="594" width="24" height="22" fill="#080b16"/>
  <rect x="40" y="590" width="20" height="26" fill="#080b16"/>
  <rect x="68" y="596" width="18" height="20" fill="#080b16"/>
  <rect x="94" y="588" width="22" height="28" fill="#080b16"/>
  <rect x="124" y="594" width="20" height="22" fill="#080b16"/>
  <rect x="152" y="586" width="24" height="30" fill="#080b16"/>
  <rect x="184" y="594" width="20" height="22" fill="#080b16"/>
  <rect x="212" y="590" width="22" height="26" fill="#080b16"/>
  <rect x="242" y="596" width="18" height="20" fill="#080b16"/>
  <rect x="268" y="588" width="24" height="28" fill="#080b16"/>
  <rect x="300" y="594" width="22" height="22" fill="#080b16"/>
  <rect x="330" y="590" width="22" height="26" fill="#080b16"/>
</svg>
